/* XPM */
static char *_b36c8a731d04326ac090de4e68ebc40BgMa5AshYjzd7Z9A[] = {
/* columns rows colors chars-per-pixel */
"64 64 205 2 ",
"   c None",
".  c #0E0905",
"X  c #0B0603",
"o  c #110C07",
"O  c #140E09",
"+  c #1A0E09",
"@  c #17120A",
"#  c #1B130C",
"$  c #1C1C0B",
"%  c #1A1B0A",
"&  c #161B14",
"*  c #191912",
"=  c #2B0C07",
"-  c #24160C",
";  c #2C140C",
":  c #251A0C",
">  c #2B1D0D",
",  c #301109",
"<  c #251711",
"1  c #261B13",
"2  c #2A1D14",
"3  c #331C11",
"4  c #1E230B",
"5  c #1E2006",
"6  c #1C2513",
"7  c #1D2913",
"8  c #19221C",
"9  c #16231F",
"0  c #1B311F",
"q  c #222A0D",
"w  c #25240D",
"e  c #24300E",
"r  c #2D2113",
"t  c #2F251E",
"y  c #25271A",
"u  c #312317",
"i  c #312519",
"p  c #35281B",
"a  c #3A2B1C",
"s  c #3A2716",
"d  c #2B3C14",
"f  c #293313",
"g  c #3A3214",
"h  c #31250F",
"j  c #1A2E25",
"k  c #192C29",
"l  c #182522",
"z  c #1B3224",
"x  c #1B342E",
"c  c #19392F",
"v  c #15352E",
"b  c #1C3531",
"n  c #193C33",
"m  c #173C37",
"M  c #242C27",
"N  c #332921",
"B  c #3A2C22",
"V  c #312720",
"C  c #283727",
"Z  c #3D362B",
"A  c #293F32",
"S  c #303F35",
"D  c #482A1A",
"F  c #522718",
"G  c #4D3617",
"H  c #593A1C",
"J  c #622C1C",
"K  c #65361D",
"L  c #443225",
"P  c #423528",
"I  c #443A2B",
"U  c #493E2D",
"Y  c #4A3826",
"T  c #523C2E",
"R  c #533323",
"E  c #4A3E33",
"W  c #553E31",
"Q  c #6A3726",
"!  c #763A27",
"~  c #2C4214",
"^  c #344A17",
"/  c #3B5717",
"(  c #17403B",
")  c #19423B",
"_  c #274236",
"`  c #314E31",
"'  c #464A1C",
"]  c #5E411C",
"[  c #6B4B1B",
"{  c #7A4E17",
"}  c #4C422E",
"|  c #46492A",
" . c #515824",
".. c #5C4435",
"X. c #584535",
"o. c #4C4C2B",
"O. c #774329",
"+. c #685729",
"@. c #614434",
"#. c #6C4736",
"$. c #664B3B",
"%. c #6A4C3C",
"&. c #614739",
"*. c #7D4532",
"=. c #764E3B",
"-. c #785136",
";. c #714D2E",
":. c #6B7439",
">. c #1A4846",
",. c #1F5759",
"<. c #224540",
"1. c #254B47",
"2. c #22514B",
"3. c #234F52",
"4. c #225355",
"5. c #255A5B",
"6. c #32554E",
"7. c #3B6254",
"8. c #33674E",
"9. c #276568",
"0. c #387775",
"q. c #367569",
"w. c #534B41",
"e. c #684D40",
"r. c #675344",
"t. c #725745",
"y. c #725847",
"u. c #715E4E",
"i. c #6F5F50",
"p. c #705F50",
"a. c #516657",
"s. c #78634B",
"d. c #736252",
"f. c #7A6453",
"g. c #7D6B5A",
"h. c #60774B",
"j. c #487465",
"k. c #833C26",
"l. c #833E28",
"z. c #8E681C",
"x. c #84412A",
"c. c #874D36",
"v. c #934E34",
"b. c #895538",
"n. c #9B563A",
"m. c #9D583B",
"M. c #94593D",
"N. c #A25C3F",
"B. c #82722C",
"V. c #85644E",
"C. c #836952",
"Z. c #8B6C58",
"A. c #8A6A57",
"S. c #8B725C",
"D. c #84715C",
"F. c #A76444",
"G. c #A96545",
"H. c #8A7562",
"J. c #8F7C69",
"K. c #8B7865",
"L. c #927E6A",
"P. c #977D66",
"I. c #35847E",
"U. c #788F53",
"Y. c #49877D",
"T. c #519279",
"R. c #908734",
"E. c #A48523",
"W. c #8D9243",
"Q. c #94816C",
"!. c #988666",
"~. c #9A8670",
"^. c #A28D73",
"/. c #A69374",
"(. c #AB967A",
"). c #B99F78",
"_. c #B9A67C",
"`. c #BCA97E",
"'. c #C0A77F",
"]. c #348986",
"[. c #389693",
"{. c #3C9385",
"}. c #3CA19E",
"|. c #3CA3A1",
" X c #478984",
".X c #4F9F89",
"XX c #569E83",
"oX c #409A96",
"OX c #41A198",
"+X c #BCA683",
"@X c #CAB586",
"#X c #C7B28A",
"$X c #D3BB8D",
"%X c #DBC495",
"&X c #DDC797",
"*X c #DEC898",
"=X c #E2CB99",
"-X c #ECD59F",
";X c #EFD8A1",
":X c #EDD5A0",
">X c #F2DBA3",
",X c #F5DEA5",
"<X c #F3DCA4",
"1X c #FAE2A8",
"2X c #F8E1A7",
/* pixels */
"                                                                                                                                ",
"                                                                                                                                ",
"                                                                                    . } _.,X                                    ",
"                                                                                    . } _.,X                                    ",
"                                                                                    . U _.,X<X;X                                ",
"                                                                                    . U _.,X>X;X                                ",
"                                                                                    . U _.,X>X;X                                ",
"                                                                                    . I /.=X:X>X                                ",
"                                                                                    o B D.+X=X>X                                ",
"                                                                                    o V i.(.%X>X                                ",
"                                                                                    o N i.(.%X>X                                ",
"                                                                                    . p p.(.%X>X                                ",
"                                                                                    . t p.(.%X>X                                ",
"                                                                                    p E f.(.%X<X                                ",
"                                                                                o p r.g.K.(.%X,X                                ",
"                                                                                o p r.g.K./.#X%X                                ",
"                                                o o o o o o o o . . . .             t E g.~./.+X%X>X                            ",
"                                                p N N N N N N B I U U I             X N u.S.D.~.$X<X                            ",
"                                            . t r.d.d.d.d.d.d.D./.`.`.!.P X             r.y.t.s.                                ",
"                                            1 Z u.J.L.Q.Q.L.L.(.*X1X1X@Xs.P             $.%.$.$.                                ",
"                                        o 1 L ..r.f.K.Q.Q.L.L.(.%X2X,X=X@X!.I .     a Y &.%.%.$.                                ",
"                                        # i X.%.$.t.S.Q.L.L.L.^.#X=X-X,X1X`.U X     u a Y ..$.%.                                ",
"                                    O # 2 B ..%.$.y.H.Q.L.L.L.Q.^.+X=X,X2X_.U X     # * 1 B ..%.%.%.                            ",
"                                    O # u L T &.$.t.C.H.L.L.L.L.J.^.#X=X;X`.X.<     o O O 1 L W W W                             ",
"                                    O # u a L Y ..%.t.f.H.L.L.L.L.Q.^.+X=X@Xs.L 1 o     - : 1 2 2 2                             ",
"                                    O # u a a L ..%.$.y.H.Q.Q.L.L.L.J.(.%X$XS.T 1 o     > : # @ O o                             ",
"                                    O # u a a L ..%.$.y.H.Q.Q.Q.Q.L.J.(.*X$XS.T 1 o     > > : -                                 ",
"                                    O # i a a L ..$.#.=.V.Z.Z.Z.Z.A.A.P.'.).C.T 1 o     > > > >                                 ",
"                                    O # i a a L ..#.! ! *.*.*.*.*.*.*.c.V.C.t.W 2 o     > > > >                                 ",
"                                    O # 2 i p L ..#.! ! ! l.l.k.k.k.k.*.#.&.X.L 1 o     > > > >                                 ",
"                                        # 1 i L ..#.! k.v.n.n.n.n.n.n.b.=.W p 1         > > > >                                 ",
"                                        o # 2 a T @.! l.m.G.G.F.F.G.G.M.#.L 1 o         : : > >                                 ",
"                                        O @ # 1 a R Q l.m.G.G.F.F.G.G.b.D <             # # : >                                 ",
"                                        O O O # r a R Q =.b.M.n.n.n.n.=.Z k             O # : >                                 ",
"                                            O # : y C S ` } O.k.k.k.k.%.j.0.            O # : >                                 ",
"                                            & & 6 z ( >.>.1.w.e.e.%.%.a. X|.            O # : >                                 ",
"                                        O & k v v ( ,.5.,.9.0. X XY.Y. XoX}.}.}.        O # : >                                 ",
"                                        @ & v ) ( <.6.7.a.j.T.XXXX.XOX|.}.}.}.[.        o # - >                                 ",
"                                    O @ % 6 c ( ( _ } +.B.R.W.W.W.U..X|.|.|.|.{.8./     o @ - >                                 ",
"                                    O @ $ 7 z c m _ Y [ z.E.E.E.R.U.T.[.].].I.q.` ^     p s D D                                 ",
"                                    O @ $ 4 & 9 c ) A | [ z.E.R.h.q.0.9.5.2._ C f f ^  .-.c.c.c.                                ",
"                                    O % q q @ * j n m A H { B.:.7.,.4.>.m z 4 5 5 e ^  .b.N.F.G.                                ",
"                                    O $ d d $ @ 6 0 n _ ] [ o.` 1.m k 8 6 7 4 5 5 e ^  .O.v.N.G.                                ",
"                                    o $ d d $ @ % 6 z C G G C v v j 7 $ $ $ 5 5 5 e ~ ' K k.v.m.                                ",
"                                    o @ q q @ O @ % 7 w > > 7 6 & 6 d f 4 @         q g K ! l.x.                                ",
"                                    ; > q q % @ & & 6 7 % @ $ 4 8 M ` ` 6 O         4 h F J J J                                 ",
"                                o ; F H ^ ~ q 6 j v c z 6 $ 5 y _ 4.5.1.8 O             > 3 3 s                                 ",
"                                o ; J O.+.' f 7 c ) ) n 0 7 7 z 2.9.9.3.l o             o # - >                                 ",
"                                o ; J x.b.-.g 7 c ) ( m n c c m ) ,.9.3.8 o             o # : >                                 ",
"                                o ; F Q *.;.g 7 z n m m b x x b m >.4.3.x 8             O # : >                                 ",
"                                    ; 3 u u w 4 7 0 n b y 2 2 y b ) >.>.3.4.            O # : >                                 ",
"                                    o o o @ $ : : w j M < = = < M x x _ 5.9.            O # : >                                 ",
"                                        o + - ; ; ; 2 1 # + + # < 2 2 M 5.5.k o         O # : >                                 ",
"                                        O # ; ; ; ; , ; # o o # ; , , t <.<.8 O         O # : >                                 ",
"                                        O # - > > > > - # O O # - ; ; 2 t y * O         O # : >                                 ",
"                                        O # > r r 2 > - # O O # - > 2 2 > : # O         O # : >                                 ",
"                                        O # r p p r - #     O @ # - r p s r # O         O # : >                                 ",
"                                        O # i a a i # o     O O O # i a a i # O         O # : >                                 ",
"                                        O # i a a i # O         O # i a a i # O         O # : >                                 ",
"                                        O # 2 i a i # O         O # i a i 2 # O         O # : >                                 ",
"                                            # 1 i i # O         O # i i 1 #             O # : >                                 ",
"                                            o # i i # O         O # i i # o             O # : >                                 ",
"                                                                                                                                ",
"                                                                                                                                "
};
