/* XPM */
static char *e3c8cd7787d84a95d43591557a40c0faATZfd7IK4sGWzpAr[] = {
/* columns rows colors chars-per-pixel */
"64 64 148 2 ",
"   c #0B060B",
".  c #0D090F",
"X  c #0F0C11",
"o  c #100D13",
"O  c #130F19",
"+  c #111015",
"@  c #131019",
"#  c #18161C",
"$  c #16191F",
"%  c #171320",
"&  c #191624",
"*  c #1B1A26",
"=  c #1D1A29",
"-  c #201E2F",
";  c #211F31",
":  c #1A2126",
">  c #1E232C",
",  c #1C292E",
"<  c #1C2D32",
"1  c #20222E",
"2  c #22292F",
"3  c #242336",
"4  c #242B33",
"5  c #2D2F35",
"6  c #252438",
"7  c #262C39",
"8  c #292C3C",
"9  c #273037",
"0  c #24343B",
"q  c #2B343C",
"w  c #26393E",
"e  c #33383E",
"r  c #2D2E42",
"t  c #2F2F48",
"y  c #2F3142",
"u  c #273940",
"i  c #2B3D43",
"p  c #2F334A",
"a  c #333747",
"s  c #333B46",
"d  c #32354D",
"f  c #333C4A",
"g  c #343651",
"h  c #363853",
"j  c #3B3F5D",
"k  c #294146",
"l  c #2E434B",
"z  c #34444D",
"x  c #3C464D",
"c  c #314A4E",
"v  c #364550",
"b  c #3D4150",
"n  c #364B52",
"m  c #3A4C55",
"M  c #3D425E",
"N  c #3C4A5B",
"B  c #375055",
"V  c #395157",
"C  c #37545A",
"Z  c #3D545B",
"A  c #3E585F",
"S  c #3E4660",
"D  c #3F5B61",
"F  c #404553",
"G  c #40455D",
"H  c #444A5B",
"J  c #40565F",
"K  c #414660",
"L  c #424B64",
"P  c #474D6A",
"I  c #484F6C",
"U  c #415563",
"Y  c #4A5266",
"T  c #435D64",
"R  c #455469",
"E  c #4D566C",
"W  c #465D6A",
"Q  c #4E5672",
"!  c #4E5972",
"~  c #545E74",
"^  c #545E79",
"/  c #446066",
"(  c #47626A",
")  c #49646C",
"_  c #4D6C74",
"`  c #566076",
"'  c #506C74",
"]  c #576178",
"[  c #5A667E",
"{  c #526D78",
"}  c #53727A",
"|  c #5B777E",
" . c #5B6781",
".. c #5D6983",
"X. c #5D7581",
"o. c #577B84",
"O. c #5E7D84",
"+. c #5D7E89",
"@. c #606D87",
"#. c #637083",
"$. c #6D7C83",
"%. c #65738A",
"&. c #68778C",
"*. c #6D7D93",
"=. c #5D828B",
"-. c #60838D",
";. c #648791",
":. c #658992",
">. c #648994",
",. c #658B95",
"<. c #678E97",
"1. c #698991",
"2. c #6D8C95",
"3. c #678E98",
"4. c #6E8E99",
"5. c #708F9B",
"6. c #69929C",
"7. c #7D959D",
"8. c #6E98A3",
"9. c #769DA7",
"0. c #779FA8",
"q. c #7FA7B1",
"w. c #8195A2",
"e. c #829AA3",
"r. c #819AA5",
"t. c #87A2AE",
"y. c #8BA1AB",
"u. c #8DA3AE",
"i. c #89A8AF",
"p. c #8DA6B2",
"a. c #80A8B3",
"s. c #81AAB4",
"d. c #90A7B6",
"f. c #91A8B5",
"g. c #98B6BE",
"h. c #8CB6C1",
"j. c #96BAC3",
"k. c #99BDC6",
"l. c #96BEC8",
"z. c #9BBFC9",
"x. c #9BC0CA",
"c. c #9FC0C9",
"v. c #A4C6CF",
"b. c #A8C9D2",
"n. c #AECDD5",
"m. c #B1CFD7",
"M. c #B2D0D7",
"N. c #B2D1D8",
/* pixels */
"* y ~ ..I g 3 & @ o o X X * d h 6 = = * @ o o o o X X * d h 6 = = * @ o o o o X X * d h 6 = = * @ o o o o o & y ~ ..I g 3 & @ o ",
"* y ~ ..I g 3 & @ o o X X * d h 6 = = * @ o o o o X X * d h 6 = = * @ o o o o X X * d h 6 = = * @ o o o o o & y ~ ..I g 3 & @ o ",
"* y ~ ..I g 3 & @ o o X X * d h 6 = = * @ o o o o X X * d h 6 = = * @ o o o o X X * d h 6 = = * @ o o o o o & y ~ ..I g 3 & @ o ",
"* y ~ ..I g 3 & @ o o X X * d h 6 = = * @ o o o o X X * d h 6 = = * @ o o o o X X * d h 6 = = * @ o o o o o & y ~ ..I g 3 & @ o ",
"* y ~ ..I g 3 & @ o o X X * d h 6 = = * @ o o o o X X * d h 6 = = * @ o o o o X X * d h 6 = = * @ o o o o o & y ~ ..I g 3 & @ o ",
"* y ~ ..I g 3 & @ o o X X * d h 6 = = * @ o o o o X X * d h 6 = = * @ o o o o X X * d h 6 = = * @ o o o o o & y ~ ..I g 3 & @ o ",
"* y ~ ..I g 3 & @ o o X X * d h 6 = = * @ o o o o X X * d h 6 = = * @ o o o o X X * d h 6 = = * @ o o o o o & y ~ ..I g 3 & @ o ",
"* y ~ ..I g 3 & @ o o X X * d h 6 = = * @ o o o o X X * d h 6 = = * @ o o o o X X * d h 6 = = * @ o o o o o & y ~ ..I g 3 & @ o ",
"* y ~ ..I g 3 & @ o o X X * d h 6 = = * @ o o o o X X * d h 6 = = * @ o o o o X X * d h 6 = = * @ o o o o o & y ~ ..I g 3 & @ o ",
"* y ~ ..I g 3 & @ o o X X * d h 6 = = * @ o o o o X X * d h 6 = = * @ o o o o X X * d h 6 = = * @ o o o o o & y ~ ..I g 3 & @ o ",
"* r ~ ..I g 3 & @ o o X X * d h 6 = = * @ o o o o X X * d h 6 = = * @ o o o o X X * d g 6 = = * @ o o o o o & y ~ ..I g 3 & @ o ",
"* r ~ ..I g 3 & @ o o X X * d h 6 = = * @ X X o o o X * d h 6 = = * @ o o o o X X * d g 6 = = * @ o o o o o & y ~ ..I g 3 & @ o ",
"* y ~ ..I g 3 & @ o o X X * d h 6 = = * @ X X o @ @ o * d h 6 = = * @ o @ @ o X X * d h 6 = = * @ o o o o o & y ~ ..I g 3 & @ o ",
"* y ~ ..I g 3 & @ o o X X * d h 6 = = * @ @ * 4 s y & * d h 6 = = * o & y s 4 & @ = d h 6 = = * @ o o o o o & y ~ ..I g 3 & @ o ",
"* y ~ ..I g 3 & @ o o X X * d h 6 = = = & 1 s W +.{ 4 & d h 6 = = & o 4 { +.W s > ; g h 3 = = * @ o o o o o & y ~ ..I g 3 & @ o ",
"* y ~ ..I g 3 & @ o o X X * d h 6 = = = 3 f ) O.;.' 4 & d h 6 = = & o 4 ' ;.O.) f r h g 3 = = * @ o o o o o & y ~ ..I g 3 & @ o ",
"* y ~ ..I g 3 & @ o o X X * d h 6 = * 3 z ) >.-.m 2 # * d h 6 = = * O # 2 m -.>.) N M g 3 = = * @ o o o o o & y ~ ..I g 3 & @ o ",
"* y ~ ..I g 3 & @ o o X X * d h 6 = 3 f ) >.s.2.q   . * d h 6 = = * @ .   q 2.s.>.' R h 6 = = * @ o o o o o & y ~ ..I g 3 & @ o ",
"* y ~ ..I g 3 & @ o o X X * d g 3 3 z ) >.s.x.e.e   . * d h 6 = = * @ .   e e.x.s.<.{ m 7 = = * @ o o o o o & y ~ ..I g 3 & @ o ",
"* y ~ ..I g 3 & @ o o X X * d g 3 7 Z } <.a.z.e.s X . & d g 3 * * & o . X s e.z.a.<.} Z 7 = = * @ o o o o o & y ~ ..I g 3 & @ o ",
"* y ~ ..I g 3 & @ o o X X * d g 3 7 Z _ } ;.a.5.f O X & p g 3 * * % o X O f 5.a.;.} _ Z 7 = = * @ o o o o o & y ~ ..I g 3 & @ o ",
"* y ~ ..I g 3 & @ o o X X * d g 3 4 n T / } 3.+.f > 4 f E ~ H F F x y 4 > f O.3.} / T n 4 = = * @ o o o o o & y ~ ..I g 3 & @ o ",
"* r ~ ..I g 3 & @ o o X X * d g 3 > w n T _ } ( i k _ 4.t.f.u.y.y.r.2._ k i ( } _ T c w 3 = = * @ o o o o o & y ~ ..I g 3 & @ o ",
"* r ~ ..I g 3 & @ o o X X * d h 3 = < i A ( T Z C _ 9.l.b.M.N.N.N.b.l.9._ C Z T ( T l 0 > = = * @ o o o o o & y ~ ..I g 3 & @ o ",
"* y ~ ..I g 3 & @ o o X X * d h 6 = = q Z T c C o.0.j.b.n.m.M.N.M.n.b.j.0.o.C c T W N p 3 = = * @ o o o o o & y ~ ..I g 3 & @ o ",
"* y ~ ..I g 3 & O X o X X * d h 6 = * 8 Z Z w l +.a.k.v.v.c.g.g.c.v.v.k.a.+.l w Z W L g 3 = = * @ X o o X o & y ~ ..I g 3 & @ o ",
"* y ~ ..I g 3 & o X X X X * d h 6 = * 8 Z V , 4 W >.q.h.h.q.1.1.q.h.h.q.>.W 4 , V W L g 3 = = * @ X X X X o & y ~ ..I g 3 & @ o ",
"* r ~ ..P g 3 & @ o o o o * r t 3 * * 8 Z Z 2 : i ( :.8.6.=._ _ =.6.8.:.( i : 2 Z W M r ; = = * @ o o o o @ & r ~ ..P g 3 & o X ",
"* r ~ ..P d ; * & & & & & * ; ; = * * 7 Z D i , : q ( _ D Z T T Z D { ( q : , i D U y ; = = = * * & & & & & * r ~  .P g 3 & o X ",
"3 d ` ..! L H b a y y y y y r r y y r a m m k < @ & i c w k D D k w c i & @ < k m m s r r y y y y y y y y r r G %.*.^ M r - # @ ",
"g G [ %...&.w.w.#.~ ~ ~ ~ ~ ~ ~ ~ ~ ` Y a 7 0 < @ o & > < k T T k < > & o @ < 0 7 a Y ~ ~ ~ ~ ~ ~ ~ ~ ~ ~ ~ ~ %.p.d.*.~ M r - & ",
"j P  .%...*.p.p.*. .........%.%.......E 8 > u w : @ @ : w l n n l w : @ @ : w u > r ~ %.@................... .*.p.d.*.~ M r 3 = ",
"j P  ...Q ! X.X.! P P P P ! ....! P I M 3 6 n V w , , w B n 4 4 n B w , < w V n 3 8 ~ @.~ P P P P P P P P P P ~ *.*.^ M r 3 = = ",
"j P  . .P M U U S j j j j P ....P j j h r y m Z c k k n T Z , , Z T n k k c Z m y d ] ..P j j j j j j j j j j P  . .P d 3 = = = ",
"j P ....P M M S M M M j j P ....P j M j h g k c C D A T ) A w w A ) T A D C c k d K [ ..P j j M S M M M M j j P  . .P g 3 = = = ",
"g K [ ..P j h g g g g g g M ~ ~ M g g g h p 0 i Z ' O.| T z 0 0 z T | O.' Z i 0 p G ~ ~ M g g g g g g g g g g K [ ..P g 3 * * * ",
"3 d ` ..P h 8 3 3 3 3 3 3 r M M r 3 3 3 6 3 > 9 Z O.i.7.x * $ $ * x 7.i.O.Z 9 = 3 r M M r 3 3 3 3 3 6 3 3 3 3 d ] ..I g 3 * @ @ ",
"* r ~ ..I g 3 * * & & & & 3 g g 3 = = * * * * 7 Z | 7.$.5 . X X . 5 $.7.| Z 7 * & 3 g g 3 = = * * & & & & & * y ~ ..I g 3 & o X ",
"* r ~ ..I g 3 * @ o O o o = d g 3 = = * @ @ * 8 Z W x 5 # X X X X # 5 x W Z 8 & @ = d g 3 = = * @ o O O o @ & y ~ ..I g 3 & o X ",
"* y ~ ..I g 3 & o X X X X * d h 6 = = * @ o @ 3 v n 4 $ + X X X X + $ 4 n v 3 @ o * d h 6 = = * @ X X X X o & y ~ ..I g 3 & @ o ",
"* y ~ ..I g 3 & O X o X X * d h 6 = = * @ o o & 3 y z i * . X X . * i n y 3 & o X * d h 6 = = * @ X o o X o & y ~ ..I g 3 & @ o ",
"* y ~ ..I g 3 & @ o o X X * d h 6 = = * @ X X o @ 3 v n 9 > > > > 9 n v 3 @ o X X * d h 6 = = * @ o o o o o & y ~ ..I g 3 & @ o ",
"* y ~ ..I g 3 & @ o o X X * d h 6 = = * @ o o o o & 3 y n Z Z Z Z n y 3 & o o X X * d h 6 = = * @ o o o o o & y ~ ..I g 3 & @ o ",
"* y ~ ..I g 3 & @ o o X X * d h 6 = = * @ o o o o o @ 3 z Z Z J J v 3 @ o o o X X * d h 6 = = * @ o o o o o & y ~ ..I g 3 & @ o ",
"* y ~ ..I g 3 & @ o o X X * d h 6 = = * @ o o o o o o & 3 8 8 8 8 3 & o o o o X X * d g 6 = = * @ o o o o o & y ~ ..I g 3 & @ o ",
"* y ~ ..I g 3 & @ o o X X * d h 6 = = * @ o o o o o X @ = 3 = = = & O X o o o X X * d h 6 = = * @ o o o o o & y ~ ..I g 3 & @ o ",
"* r ~ ..I g 3 & @ o o X X * d h 6 = = * @ o o o o X X & r p 3 = = * + o o o o X X * d h 6 = = * @ o o o o o & y ~ ..I g 3 & @ o ",
"* r ~ ..I g 3 & @ o o X X * d h 6 = = * @ o o o o X X * d h 6 = = * @ o o o o X X * d h 6 = = * @ o o o o o & y ~ ..I g 3 & @ o ",
"* y ~ ..I g 3 & @ o o X X * d h 6 = = * @ o o o o X X * d h 6 = = * @ o o o o X X * d h 6 = = * @ o o o o o & y ~ ..I g 3 & @ o ",
"* y ~ ..I g 3 & @ o o X X * d h 6 = = * @ o o o o X X * d h 6 = = * @ o o o o X X * d h 6 = = * @ o o o o o & y ~ ..I g 3 & @ o ",
"* y ~ ..I g 3 & @ o o X X * d h 6 = = * @ o o o o X X * d h 6 = = * @ o o o o X X * d h 6 = = * @ o o o o o & y ~ ..I g 3 & @ o ",
"* y ~ ..I g 3 & @ o o X X * d h 6 = = * @ o o o o X X * d h 6 = = * @ o o o o X X * d h 6 = = * @ o o o o o & y ~ ..I g 3 & @ o ",
"* y ~ ..I g 3 & @ o o X X * d h 6 = = * @ o o o o X X * d h 6 = = * @ o o o o X X * d h 6 = = * @ o o o o o & y ~ ..I g 3 & @ o ",
"* y ~ ..I g 3 & @ o o X X * d h 6 = = * @ o o o o X X * d h 6 = = * @ o o o o X X * d h 6 = = * @ o o o o o & y ~ ..I g 3 & @ o ",
"* y ~ ..I g 3 & @ o o X X * d h 6 = = * @ o o o o X X * d h 6 = = * @ o o o o X X * d h 6 = = * @ o o o o o & y ~ ..I g 3 & @ o ",
"* y ~ ..I g 3 & @ o o X X * d h 6 = = * @ o o o o X X * d h 6 = = * @ o o o o X X * d g 6 = = * @ o o o o o & y ~ ..I g 3 & @ o ",
"* y ~ ..I g 3 & @ o o X X * d h 6 = = * @ o o o o X X * d h 6 = = * @ o o o o X X * d h 6 = = * @ o o o o o & y ~ ..I g 3 & @ o ",
"* y ~ ..I g 3 & @ o o X X * d h 6 = = * @ o o o o X X * d h 6 = = * @ o o o o X X * d h 6 = = * @ o o o o o & y ~ ..I g 3 & @ o ",
"* r ~ ..I g 3 & @ o o X X * d h 6 = = * @ o o o o X X * d h 6 = = * O o o o o X X * d h 6 = = * @ o o o o o & y ~ ..I g 3 & @ o ",
"* r ~ ..I g 3 & @ o o X X * d h 6 = = * @ o o o o X X * d h 6 = = * @ o o o o X X * d h 6 = = * @ o o o o o & y ~ ..I g 3 & @ o ",
"* y ~ ..I g 3 & @ o o X X * d h 6 = = * @ o o o o X X * d h 6 = = * @ o o o o X X * d h 6 = = * @ o o o o o & y ~ ..I g 3 & @ o ",
"* y ~ ..I g 3 & @ o o X X * d h 6 = = * @ o o o o X X * d h 6 = = * @ o o o o X X * d h 6 = = * @ o o o o o & y ~ ..I g 3 & @ o ",
"* y ~ ..I g 3 & @ o o X X * d h 6 = = * @ o o o o X X * d h 6 = = * @ o o o o X X * d h 6 = = * @ o o o o o & y ~ ..I g 3 & @ o ",
"* y ~ ..I g 3 & @ o o X X * d h 6 = = * @ o o o o X X * d h 6 = = * @ o o o o X X * d h 6 = = * @ o o o o o & y ~ ..I g 3 & @ o "
};
