/* XPM */
static char *_635c54c477449a89c29b386817a4440Ckwv0RKOIHTufSud[] = {
/* columns rows colors chars-per-pixel */
"64 64 112 2 ",
"   c #18101C",
".  c #170F1B",
"X  c #160E1A",
"o  c #1F1723",
"O  c #312934",
"+  c #3A323D",
"@  c #3A323C",
"#  c #39313C",
"$  c #3B333E",
"%  c #2F2732",
"&  c #1B131F",
"*  c #46404A",
"=  c #AEABB0",
"-  c #E4E2E5",
";  c #E2E0E3",
":  c #DFDDE0",
">  c #DEDCDF",
",  c #DEDBDF",
"<  c #E6E4E7",
"1  c #F6F5F7",
"2  c #FFFEFF",
"3  c #FEFDFF",
"4  c white",
"5  c #F7F5F8",
"6  c #DDDBDE",
"7  c #19111D",
"8  c #1D1521",
"9  c #261E2A",
"0  c #332B36",
"q  c #38303B",
"w  c #2A222D",
"e  c #4E4751",
"r  c #B1ADB2",
"t  c #E3E2E4",
"y  c #E0DEE1",
"u  c #ECEBED",
"i  c #F8F7F9",
"p  c #FDFCFE",
"a  c #F9F7FA",
"s  c #F2F1F3",
"d  c #EAE8EB",
"f  c #2A222E",
"g  c #372F3A",
"h  c #251D29",
"j  c #211824",
"k  c #28202C",
"l  c #5B555E",
"z  c #B5B2B7",
"x  c #E3E1E4",
"c  c #F0EFF1",
"v  c #FCFBFD",
"b  c #ECEAED",
"n  c #342C37",
"m  c #2C242F",
"M  c #231B26",
"N  c #625C65",
"B  c #B8B4B9",
"V  c #E1E0E2",
"C  c #EDEBEE",
"Z  c #F9F8FA",
"A  c #F2F0F3",
"S  c #E9E7EA",
"D  c #2B232E",
"F  c #625B64",
"G  c #B7B4B9",
"H  c #EBEAEC",
"J  c #362E39",
"K  c #615B64",
"L  c #352D38",
"P  c #5B545E",
"I  c #B5B1B6",
"U  c #E1DFE2",
"Y  c #221A25",
"T  c #4D4751",
"R  c #28202B",
"E  c #47404A",
"W  c #AEAAB0",
"Q  c #E5E3E6",
"!  c #E7E5E8",
"~  c #1A121E",
"^  c #150C19",
"/  c #AEAAAF",
"(  c #F3F2F4",
")  c #140C18",
"_  c #130A17",
"`  c #49434D",
"'  c #B4B1B6",
"]  c #F1F0F2",
"[  c #C1BEC2",
"{  c #150D19",
"}  c #504953",
"|  c #C7C4C9",
" . c #C6C4C8",
".. c #4F4953",
"X. c #504A53",
"o. c #C8C5C9",
"O. c #EFEDF0",
"+. c #110915",
"@. c #100714",
"#. c #4C4650",
"$. c #C3C0C4",
"%. c #FBF9FB",
"&. c #F0EEF1",
"*. c #0E0612",
"=. c #47414B",
"-. c #B7B3B8",
";. c #F4F3F5",
":. c #605A63",
">. c #959197",
",. c #615A64",
"<. c #352D39",
"1. c #372E3A",
/* pixels */
"                  . X o O + @ # # # # # # # # # # # # + $ % & * = - ; : : : : : : > , < 1 2 3 3 3 3 3 3 3 3 3 3 3 3 3 2 4 5 < 6 ",
"                . 7 8 9 0 + # # # # # # # # # # # # + q 0 w o e r t ; : : : : : > y - u i 2 3 3 3 3 3 3 3 3 3 3 3 3 2 p a s d < ",
"              . . 8 f 0 g # # # # # # # # # # # # + + 0 h j k l z x ; : : : : > > - c a v 3 3 3 3 3 3 3 3 3 3 3 3 2 2 a b d s 5 ",
"            . 7 8 9 n + + # # # # # # # # # # # + q 0 m M M % N B x V : : : > y - C Z 2 2 3 3 3 3 3 3 3 3 3 3 3 2 p i A S b a 4 ",
"          . . 8 D n q + # # # # # # # # # # # + + 0 h M m O n F G x V : : > > - c Z p 2 3 3 3 3 3 3 3 3 3 3 3 2 2 i H S A a p 2 ",
"        . 7 8 9 n + + # # # # # # # # # # # + q 0 m M h 0 q J K G x V : > y - C Z 2 2 3 3 3 3 3 3 3 3 3 3 3 2 p i A S H i 2 2 3 ",
"      . . 8 D n q + # # # # # # # # # # # + + 0 h M m 0 q g J F G x V > > - c Z p 2 3 3 3 3 3 3 3 3 3 3 3 2 2 i H S A i p 2 2 2 ",
"    . 7 8 9 n + + # # # # # # # # # # # + q 0 m M h 0 + + L % P I x U y - C Z 2 2 3 3 3 3 3 3 3 3 3 3 3 2 p i A S H i 2 2 v i 1 ",
"  . . 8 D n q + # # # # # # # # # # # + + 0 h M m 0 q + + O Y T r x U - c Z p 2 3 3 3 3 3 3 3 3 3 3 3 2 2 i H S A i p 2 2 a u < ",
". 7 8 9 n + + # # # # # # # # # # # + q 0 m M h 0 + + q n R 7 E W Q ! C Z 2 2 3 3 3 3 3 3 3 3 3 3 3 2 p i A S H i 2 2 p Z c - , ",
"X 8 f n q + # # # # # # # # # # # + + 0 h M m 0 q + + n 9 ~ ^ E / S ( Z p 2 3 3 3 3 3 3 3 3 3 3 3 2 2 i H S A i p 2 2 Z C - y > ",
"o 9 0 + + # # # # # # # # # # # + q 0 m M h 0 + + q n D 8 ) _ ` ' ] v 2 2 3 3 3 3 3 3 3 3 3 3 3 2 p i A S H i 2 2 p Z c - > > : ",
"O 0 g + # # # # # # # # # # # + + 0 h M m 0 q + + n 9 8 7 ) _ e [ 3 4 2 3 3 3 3 3 3 3 3 3 3 3 2 2 i H S A i p 2 2 Z C - y > : : ",
"+ + # # # # # # # # # # # # + q 0 m M h 0 + + q n D 8 . . { _ } | 4 4 3 3 3 3 3 3 3 3 3 3 3 2 p i A S H i 2 2 p Z c - > > : : : ",
"@ # # # # # # # # # # # # + + 0 h M m 0 q + + n 9 8 7 .   { _ } | 4 4 3 3 3 3 3 3 3 3 3 3 2 2 i H S A i p 2 2 Z C - y > : : : : ",
"# # # # # # # # # # # # + q 0 m M h 0 + + q n D 8 . .     { _ }  .4 4 3 3 3 3 3 3 3 3 3 2 p i A S H i 2 2 p Z c - > > : : : : : ",
"# # # # # # # # # # # + + 0 h M m 0 q + + n 9 8 7 .       { _ }  .4 4 3 3 3 3 3 3 3 3 2 2 i H S A i p 2 2 Z C - y > : : : : : : ",
"# # # # # # # # # # + q 0 m M h 0 + + q n D 8 . .         { _ }  .4 4 3 3 3 3 3 3 3 2 p i A S H i 2 2 p Z c - > > : : : : : : : ",
"# # # # # # # # # + + 0 h M m 0 q + + n 9 8 7 .           { _ }  .4 4 3 3 3 3 3 3 2 2 i H S A i p 2 2 Z C - y > : : : : : : : : ",
"# # # # # # # # + q 0 m M h 0 + + q n D 8 . .             { _ }  .4 4 3 3 3 3 3 2 p i A S H i 2 2 p Z c - > > : : : : : : : : : ",
"# # # # # # # + + 0 h M m 0 q + + n 9 8 7 .               { _ }  .4 4 3 3 3 3 2 2 i H S A i p 2 2 Z C - y > : : : : : : : : : : ",
"# # # # # # + q 0 m M h 0 + + q n D 8 . .                 { _ }  .4 4 3 3 3 2 p i A S H i 2 2 p Z c - > > : : : : : : : : : : : ",
"# # # # # + + 0 h M m 0 q + + n 9 8 7 .                   { _ }  .4 4 3 3 2 2 i H S A i p 2 2 Z C - y > : : : : : : : : : : : : ",
"# # # # + q 0 m M h 0 + + q n D 8 . .                     { _ }  .4 4 3 2 p i A S H i 2 2 p Z c - > > : : : : : : : : : : : : : ",
"# # # + + 0 h M m 0 q + + n 9 8 7 .                       { _ }  .4 4 2 2 i H S A i p 2 2 Z C - y > : : : : : : : : : : : : : : ",
"# # + q 0 m M h 0 + + q n D 8 . .                         { _ .. .4 4 p i A S H i 2 2 p Z c - > > : : : : : : : : : : : : : : : ",
"# + + 0 h M m 0 q + + n 9 8 7 .                           { _ .. .4 4 i H S A i p 2 2 Z C - y > : : : : : : : : : : : : : : : : ",
"+ q 0 m M h 0 + + q n D 8 . .                             ^ _ } | 4 v A S H i 2 2 p Z c - > > : : : : : : : : : : : : : : : : : ",
"$ 0 h M m 0 q + + n 9 8 7 .                               ^ _ X.o.3 O.S A i p 2 2 Z C - y > : : : : : : : : : : : : : : : : : : ",
"% w j M O q g L O R ~ ) ) { { { { { { { { { { { { { { ^ ^ +.@.#.$.%.&.O.v 4 4 4 v ( ! U U V V V V V V V V V V V V V V V V ; ; ; ",
"& o k % n J J % Y 7 ^ _ _ _ _ _ _ _ _ _ _ _ _ _ _ _ _ _ _ @.*.=.-.;.%.3 4 4 4 3 ] S Q x x x x x x x x x x x x x x x x x x x t - ",
"* e l N F K F P T E E ` e } } } } } } } } } } } } ....} X.#.=.:.>.-.$.o.| | | [ ' / W r I G G -.-.-.-.-.-.-.-.-.-.-.-.G B z r = ",
"= r z B G G G I r W / ' [ | |  . . . . . . . . . . . .| o.$.-.>.:.=.#.X.} } } e ` E E T P F K K K K K K K K K K K ,.,.F N l e * ",
"- t x x x x x x x Q S ] 3 4 4 4 4 4 4 4 4 4 4 4 4 4 4 4 3 %.;.-.=.*.@._ _ _ _ _ _ ^ 7 Y % J <.L L L L L L L L L L L J n % k o & ",
"; ; ; V V V V U U ! ( v 4 4 4 4 4 4 4 4 4 4 4 4 4 4 4 v O.&.%.$.#.@.+.^ ^ { { ) ) ~ R O L g g 1.1.1.1.1.1.1.1.1.1.g q O M j w % ",
": : : : : : > y - C Z 2 2 3 3 3 3 3 3 3 3 3 3 3 2 p i A S O.3 o.X._ ^       . 7 8 9 n + + # # # # # # # # # # # + q 0 m M h 0 $ ",
": : : : : > > - c Z p 2 3 3 3 3 3 3 3 3 3 3 3 2 2 i H S A v 4 | } _ ^     . . 8 D n q + # # # # # # # # # # # + + 0 h M m 0 q + ",
": : : : > y - C Z 2 2 3 3 3 3 3 3 3 3 3 3 3 2 p i A S H i 4 4 | } _ {   . 7 8 9 n + + # # # # # # # # # # # + q 0 m M h 0 + + # ",
": : : > > - c Z p 2 3 3 3 3 3 3 3 3 3 3 3 2 2 i H S A i p 4 4 | } _ { . . 8 D n q + # # # # # # # # # # # + + 0 h M m 0 q + + + ",
": : > y - C Z 2 2 3 3 3 3 3 3 3 3 3 3 3 2 p i A S H i 2 2 4 3 [ e _ ) 7 8 9 n + + # # # # # # # # # # # + q 0 m M h 0 + + g 0 O ",
": > > - c Z p 2 3 3 3 3 3 3 3 3 3 3 3 2 2 i H S A i p 2 2 v ] ' ` _ ) 8 D n q + # # # # # # # # # # # + + 0 h M m 0 q + + 0 9 o ",
"> y - C Z 2 2 3 3 3 3 3 3 3 3 3 3 3 2 p i A S H i 2 2 p Z ( S / E ^ ~ 9 n + + # # # # # # # # # # # + q 0 m M h 0 + + q n f 8 X ",
", - c Z p 2 3 3 3 3 3 3 3 3 3 3 3 2 2 i H S A i p 2 2 Z C ! Q W E 7 R n q + # # # # # # # # # # # + + 0 h M m 0 q + + n 9 8 7 . ",
"< u a 2 2 3 3 3 3 3 3 3 3 3 3 3 2 p i A S H i 2 2 p Z c - U x r T Y O + + # # # # # # # # # # # + q 0 m M h 0 + + q n D 8 . .   ",
"1 i v 2 3 3 3 3 3 3 3 3 3 3 3 2 2 i H S A i p 2 2 Z C - y U x I P % L + # # # # # # # # # # # + + 0 h M m 0 q + + n 9 8 7 .     ",
"2 2 3 3 3 3 3 3 3 3 3 3 3 3 2 p i A S H i 2 2 p Z c - > > V x G F J g # # # # # # # # # # # + q 0 m M h 0 + + q n D 8 . .       ",
"3 3 3 3 3 3 3 3 3 3 3 3 3 2 2 i H S A i p 2 2 Z C - y > : V x G K <.g # # # # # # # # # # + + 0 h M m 0 q + + n 9 8 7 .         ",
"3 3 3 3 3 3 3 3 3 3 3 3 2 p i A S H i 2 2 p Z c - > > : : V x -.K L 1.# # # # # # # # # + q 0 m M h 0 + + q n D 8 . .           ",
"3 3 3 3 3 3 3 3 3 3 3 2 2 i H S A i p 2 2 Z C - y > : : : V x -.K L 1.# # # # # # # # + + 0 h M m 0 q + + n 9 8 7 .             ",
"3 3 3 3 3 3 3 3 3 3 2 p i A S H i 2 2 p Z c - > > : : : : V x -.K L 1.# # # # # # # + q 0 m M h 0 + + q n D 8 . .               ",
"3 3 3 3 3 3 3 3 3 2 2 i H S A i p 2 2 Z C - y > : : : : : V x -.K L 1.# # # # # # + + 0 h M m 0 q + + n 9 8 7 .                 ",
"3 3 3 3 3 3 3 3 2 p i A S H i 2 2 p Z c - > > : : : : : : V x -.K L 1.# # # # # + q 0 m M h 0 + + q n D 8 . .                   ",
"3 3 3 3 3 3 3 2 2 i H S A i p 2 2 Z C - y > : : : : : : : V x -.K L 1.# # # # + + 0 h M m 0 q + + n 9 8 7 .                     ",
"3 3 3 3 3 3 2 p i A S H i 2 2 p Z c - > > : : : : : : : : V x -.K L 1.# # # + q 0 m M h 0 + + q n D 8 . .                       ",
"3 3 3 3 3 2 2 i H S A i p 2 2 Z C - y > : : : : : : : : : V x -.K L 1.# # + + 0 h M m 0 q + + n 9 8 7 .                         ",
"3 3 3 3 2 p i A S H i 2 2 p Z c - > > : : : : : : : : : : V x -.K L 1.# + q 0 m M h 0 + + q n D 8 . .                           ",
"3 3 3 2 2 i H S A i p 2 2 Z C - y > : : : : : : : : : : : V x -.K L 1.+ + 0 h M m 0 q + + n 9 8 7 .                             ",
"3 3 2 p i A S H i 2 2 p Z c - > > : : : : : : : : : : : : V x -.,.L g q 0 m M h 0 + + q n D 8 . .                               ",
"3 2 2 i H S A i p 2 2 Z C - y > : : : : : : : : : : : : : V x -.,.J q 0 h M m 0 q + + n 9 8 7 .                                 ",
"2 p a A S H i 2 2 p Z c - > > : : : : : : : : : : : : : : V x G F n O m M h 0 + + q n D 8 . .                                   ",
"4 a b S A i p 2 2 Z C - y > : : : : : : : : : : : : : : : V x B N % M M m 0 q + + n 9 8 7 .                                     ",
"5 s d b a 2 2 v a c - > > : : : : : : : : : : : : : : : : ; x z l k j h 0 + + g 0 f 8 . .                                       ",
"< d s a p 2 2 i u - y > : : : : : : : : : : : : : : : : : ; t r e o w 0 q + + 0 9 8 7 .                                         ",
"6 < 5 4 2 3 2 1 < , > : : : : : : : : : : : : : : : : : : ; - = * & % $ + # + O o X .                                           "
};
