/* XPM */
static char *_f3572bd9a3f4f0ef519502397094336GKIvhHdmMeibx8OD[] = {
/* columns rows colors chars-per-pixel */
"64 64 227 2 ",
"   c None",
".  c #070403",
"X  c #0E0A07",
"o  c #0B0604",
"O  c #110C07",
"+  c #130D09",
"@  c #161009",
"#  c #1C130C",
"$  c #171B15",
"%  c #0F1613",
"&  c #22160C",
"*  c #2A160E",
"=  c #251A0C",
"-  c #2A1D0D",
";  c #251B13",
":  c #2B1D12",
">  c #211711",
",  c #331E13",
"<  c #3F1E14",
"1  c #351F0F",
"2  c #35270F",
"3  c #2D2012",
"4  c #2D241C",
"5  c #282415",
"6  c #322215",
"7  c #3B2312",
"8  c #332619",
"9  c #37281A",
"0  c #3C2C1D",
"q  c #382A12",
"w  c #362D12",
"e  c #12322E",
"r  c #0F3B3B",
"t  c #143D39",
"y  c #172D28",
"u  c #2D2821",
"i  c #322920",
"p  c #3E2D20",
"a  c #302720",
"s  c #3F3228",
"d  c #3D3026",
"f  c #2C3B33",
"g  c #4E2416",
"h  c #432B1C",
"j  c #462817",
"k  c #552A1B",
"l  c #5E2A1B",
"z  c #502619",
"x  c #4B3512",
"c  c #41321D",
"v  c #4B3817",
"b  c #543918",
"n  c #652D1C",
"m  c #682F1E",
"M  c #6B371D",
"N  c #70301F",
"B  c #452E20",
"V  c #443222",
"C  c #493624",
"Z  c #453C2C",
"A  c #4E392B",
"S  c #483629",
"D  c #523C2E",
"F  c #553E31",
"G  c #593F30",
"H  c #493D32",
"J  c #6C3321",
"K  c #663524",
"L  c #743121",
"P  c #7A3924",
"I  c #1F443A",
"U  c #344C36",
"Y  c #375136",
"T  c #30442F",
"R  c #5B4214",
"E  c #72421E",
"W  c #7A5A1B",
"Q  c #6D5B1C",
"!  c #7B621F",
"~  c #56402A",
"^  c #5D472E",
"/  c #5A4233",
"(  c #5A4838",
")  c #565A34",
"_  c #4D4D32",
"`  c #61492F",
"'  c #79442C",
"]  c #624635",
"[  c #634B31",
"{  c #664A3A",
"}  c #694D3D",
"|  c #624738",
" . c #7C4B34",
".. c #6C5235",
"X. c #62523B",
"o. c #6C503E",
"O. c #75503D",
"+. c #745738",
"@. c #665227",
"#. c #766725",
"$. c #756D32",
"%. c #716B29",
"&. c #566331",
"*. c #5C4E41",
"=. c #5A5044",
"-. c #664F40",
";. c #6E5443",
":. c #6D5C4C",
">. c #615243",
",. c #705645",
"<. c #725847",
"1. c #745A49",
"2. c #785F4E",
"3. c #7D5A42",
"4. c #6E5E51",
"5. c #79614E",
"6. c #75634A",
"7. c #726252",
"8. c #7B6452",
"9. c #7E6856",
"0. c #7C6A59",
"q. c #843E29",
"w. c #813C27",
"e. c #9A6E1C",
"r. c #A6771E",
"t. c #854B24",
"y. c #86412B",
"u. c #874529",
"i. c #84542B",
"p. c #93542A",
"a. c #814C34",
"s. c #8D4931",
"d. c #924D34",
"f. c #875137",
"g. c #8B5338",
"h. c #99553A",
"j. c #9E5A3D",
"k. c #945638",
"l. c #A15C3D",
"z. c #826724",
"x. c #857829",
"c. c #9D7A26",
"v. c #937524",
"b. c #92692F",
"n. c #A46839",
"m. c #A37B34",
"M. c #BA763D",
"N. c #AC782E",
"B. c #995D41",
"V. c #885840",
"C. c #A35E40",
"Z. c #866543",
"A. c #896849",
"S. c #9C6648",
"D. c #967249",
"F. c #99744C",
"G. c #9F794E",
"H. c #816956",
"J. c #846D5A",
"K. c #8A6D53",
"L. c #86715E",
"P. c #88725F",
"I. c #987758",
"U. c #A66244",
"Y. c #A96444",
"T. c #AD6842",
"R. c #A87852",
"E. c #8A7461",
"W. c #8E7965",
"Q. c #8C7866",
"!. c #917D69",
"~. c #937C65",
"^. c #90812C",
"/. c #A5852B",
"(. c #A99127",
"). c #B98A2F",
"_. c #CA9123",
"`. c #CD8D30",
"'. c #BA8E5B",
"]. c #B58559",
"[. c #B18859",
"{. c #94806C",
"}. c #988368",
"|. c #A48A6D",
" X c #A78B6C",
".X c #B89368",
"XX c #A68D70",
"oX c #AB967A",
"OX c #AE987B",
"+X c #A7926E",
"@X c #BAA87D",
"#X c #C2945F",
"$X c #CD9C65",
"%X c #C69966",
"&X c #D19F67",
"*X c #C89F71",
"=X c #D2A066",
"-X c #D5A26A",
";X c #DCAC73",
":X c #D1A773",
">X c #C9A172",
",X c #EEB674",
"<X c #E9B475",
"1X c #F3BA76",
"2X c #F6BC78",
"3X c #F9BF7A",
"4X c #F0B775",
"5X c #E4AE70",
"6X c #FBC07B",
"7X c #C2AD81",
"8X c #CEB688",
"9X c #C9B486",
"0X c #D8BA8A",
"qX c #D4BE90",
"wX c #EFBF80",
"eX c #DAC495",
"rX c #D6C091",
"tX c #E4CC98",
"yX c #EFD096",
"uX c #EFD49B",
"iX c #F2C88B",
"pX c #EFD8A1",
"aX c #EFD9A2",
"sX c #F1DAA2",
"dX c #F0D9A2",
"fX c #F1DAA3",
"gX c #F7E0A7",
/* pixels */
"                                                                    X o                                                         ",
"                                                                    Z (                                                         ",
"                                                                o Z }.9XtXsX                                                    ",
"                                                                4 X.7XgXfXaX                                                    ",
"                                                            O 4 *.{.qXfXsXaXaXaX                                                ",
"                                                            O i 7.OXeXsXsXaXaXaX                                                ",
"                                X X X X X X X X             O i 7.OXeXsXsXaXaXaX                                                ",
"                                V C C C C C C V             O i 7.oXeXsXsXaXaXaX                                                ",
"                            . c D.'.'.'.'.'.'.D.V X         O i 7.oXeXsXsXaXaXaX                                                ",
"                            0 +.$X6X3X2X2X2X3X'.V o         O i 7.oXeXsXsXaXaXuX                                                ",
"                        . 0 D.$X<X3X3X2X1X2X3X'.V o         O i 7.oXeXsXsXaXaXyXiX,X,X,X,X,X,X,X                                ",
"                        c +.$X,X=X#X#X$X5X2X2X%X+.V         O i 7.oXeXsXsXaXaXyX2X,X,X4X1X1X1X1X                                ",
"                    . c D.$X,X-XZ.^ ^ Z.=X2X1X5X$XD.V X     O i 7.oXeXsXsXaXaXyXwX,X,X1X1X1X1X1X1X1X1X1X                        ",
"                    V ..[.-X-X[.[ 9 8 ~ G.=X5X2X3X'.C X     O i 7.oXeXsXsXaXaXyXwX4X1X5X$X#X#X%X$X&X$X&X                        ",
"                . V F.[.F.A.A.3.{ A 0 0 ~ Z.$X2X3X'.C X     O i 7.oXeXsXsXaXaXyXwX1X2X=XZ.` ` ..Z.A.A.G.=X1X                    ",
"                c ..[..XA.;.;.;.} ] A 0 8 [ #X2X3X'.C X     O i 7.oXeXsXsXaXaXyXiX<X=XG.~ 8 9 S / { ;.K.%X;X                    ",
"            . c F.[.F.A.J.L.L.9.;.{ ] D 9 [ #X3X6X'.C X     O i 7.oXeXsXsXaXaXyXiX=XZ.~ 0 0 D / | ;.9.W.|..X;X1X                ",
"            c ...X%XK.2.E.{.{.E.8.,.} / p [ %X<X$XA.0 O     O i 7.oXeXsXsXsXsXtX:XG.~ 8 p A ] } ,.8.E.!.!.|.*X;X                ",
"        X V F..X.X|.W.E.!.{.{.!.E.H.,./ p [ $X&X+.9 & + + + + i 7.oXeXsXsXsXfX8XK.D 0 p D ] { ,.H.E.!.!.!.}.|..X;X1X            ",
"        X V [.:X XQ.E.P.L.E.!.{.{.Q.8.} A [ G.D.0 O + # # @ + i 7.oXeXsXsXsXfX7XX.8 0 A ] } ,.8.E.{.{.W.E.E.Q. X;X1X            ",
"        X i K.XX}.E.8.,.,.5.E.{.{.!.E.9.;./ A 0 ; # = = = # + i 7.oXeXsXsXsXfX7XX.9 D ] { ,.H.E.!.{.{.E.5.2.E. X;X1X            ",
"        4 H 0.!.Q.9.;.} ;.2.J.E.!.{.{.L.-.V > = x b 2 = = & + i 7.oXeXsXsXsXfX7XX.B / o.,.8.E.{.!.!.E.H.1.1.H.}.*X;X            ",
"    O 8 >.0.Q.E.8.;.} ;.H.J.2.5.E.{.{.0.S > # x r.r.x & = & + i 7.oXeXsXsXsXfX7XX.B / ,.H.E.!.!.!.E.5.2.H.H.2.8.~..X;X1X        ",
"    X i 7.{.Q.9.;.} ;.5.J.H.;.,.L.{.{.7.i O # b r.r.W R R x = a 7.oXeXsXsXsXfX7XX.0 G 1.E.{.{.!.!.L.,.,.E.E.,.;.J.|.>X;X        ",
"    X i 7.W.8.;.} ;.H.J.5.;.} ,.L.{.{.7.i + & 2 x W r._._.e.q a 4.oXeXsXsXsXfX7XX.0 G <.E.{.{.{.!.L.,.<.E.E.,.;.L.}.|. X        ",
"    4 H 7.H.,.} ;.2.J.H.;.} ;.8.E.{.{.7.i @ = = & x e._._.e.q a 4.oXeXsXsXsXfX9X6./ } 8.E.!.E.E.!.P.,.;.H.J.2.2.H.P.L.L.        ",
"O i >.7.1.;.} ;.H.J.5.;.} ;.H.E.!.{.{.7.i @ = - = 2 x R R x = a 7.oXeXsXsXsXsXqX}.0.J.E.!.E.5.8.Q.E.<.} ;.2.J.J.2.,.,.2.E.{.    ",
"O 8 :.J.,.{ { 1.E.E.<.{ { <.E.{.{.{.{.7.i @ = - - - 1 , - # + i 7.oXeXsXsXsXsXrXXXE.Q.{.{.L.,.;.H.J.2.;.} <.E.E.<.{ { <.E.{.    ",
"+ 4 ( 1.;.{ { <.E.E.1.{ { <.E.{.{.{.{.7.i @ = - - 7 k k , # + i 7.oXeXsXsXsXsX8XW.2.E.{.{.P.,.} ;.2.J.H.;.<.E.E.<.{ { 1.E.{.    ",
"+ ; S / | } ;.2.J.H.,.} ;.2.J.P.P.E.Q.:.8 @ = - - 7 n m g - # 8 7.oXeXsXsXsXsX8XK.;.L.{.{.P.<.{ { <.E.E.<.;.H.J.2.;.} ,.H.E.    ",
"    ; 9 G ,.H.J.2.;.} ,.H.J.2.,.<.1.1.( 4 # = - - 7 n L m g & i 7.oXeXsXsXsXsX8XK.;.L.{.{.P.<.{ { 1.E.E.<.} ;.2.J.H.,.} ;.<.    ",
"    O ; D 1.E.E.<.{ { 1.E.E.<.{ { { / V > # = - - 7 n P q.J : a 7.oXeXsXsXsXsX8XK.;.9.Q.!.P.<.{ { ,.H.J.2.;.} <.E.E.1.{ { {     ",
"    + ; D 1.E.E.1.{ { <.E.E.1.{ } / 9 > @ # = - - 7 n w.k.' , a 7.oXeXsXsXsXsX8XK.} ;.8.Q.E.<.{ { } ;.2.J.H.;.<.E.E.<.{ { {     ",
"    + 4 ( 5.J.H.,.} ;.2.J.H.,.{ / C ; + @ # = - - 7 n y.j.a.6 a 7.oXeXsXsXsXfX9X5.A A ( 8.J.2.;.} { { <.E.E.<.;.H.J.2.;.} }     ",
"    O 8 :.J.5.;.} ,.H.J.2.,.} / V 8 - = = = - - - 7 n q.j.a.6 4 7.oXeXsXsXsXfX@X( > > i ( 5.J.H.,.{ { <.E.E.1.} ;.2.J.H.,.{     ",
"    O i 7.Q.1.{ { 1.E.E.<.{ } / 8 = 1 j h h 6 = = 7 M p.l.a.6 a 7.oXeXsXsXsXfX7X{ , , h / 1.E.E.1.{ { 1.E.E.<.{ { <.E.E.1.{     ",
"    O i 7.Q.1.{ { <.E.E.1.{ } G ; & g J a.' h = # q ! m.n.a.6 4 7.oXeXsXsXsXfX8XF. .a. .} 1.E.E.1.{ { 1.E.E.<.{ { 1.E.E.1.{     ",
"    O 8 :.H.,.} ;.2.J.H.,.| / S 6 j J d.C.g.h & + w #.m.m.i.6 4 4.oXeXsXsXsXsX0X].Y.Y.k.] { J.E.1.{ { ,.H.J.2.;.} ,.H.H.<.{     ",
"    + 4 ( ,.} ,.H.J.2.,.o./ 9 , z J s.l.Y.g.h & + 5 ^ b.m.z.2 4 4.oXeXsXsXsXsX0X].Y.Y.f.h s 8.E.1.{ { } ;.2.J.H.,.} ;.<.        ",
"    + ; D } } 1.E.E.<.{ } D ; * l y.j.Y.Y.f.h & @ ; F +.b.#.c Z E.7XtXfXfXfXfX0XR.h.C.f.B S 2.J.5.;.} { { <.E.E.1.{ { {         ",
"    + ; G } } 1.E.E.<.{ } D ; * l y.j.Y.Y.f.h # @ ; F o.+.../ 1.@XtXsXfXfXfXgX8XS.y.h.B.g. .,.2.J.H.,.{ { <.E.E.1.{ { {         ",
"    + ; S / | 1.E.E.1.} } D ; * l q.d.j.U.g.k - # ; F } } { { 5.+X@X@X@X@X@X@X.Xn.p.l.U.Y.B.O.<.E.E.1.{ { 1.E.E.1.{ { }         ",
"        ; 9 G 1.E.E.1.} } D ; * l P w.s.j.h.P g & ; D } } } } | ~ Z Z Z Z Z Z @.N.`.M.C.U.B.O.<.E.E.1.{ { 1.E.E.1.{ { }         ",
"        O ; D 1.E.E.1.{ } ( s 0 k m P u.k.k.t.E x c / } } } O.] h , , , , 6 2 R c.`.M.M.T.B.O.1.E.E.1.{ { 1.E.E.1.{ { }         ",
"        + ; D 1.E.E.1.{ { ;.2.>.p j  .k.u.t.b.v.v.#.+.} { O.V.k.f.a.a.a.a.i.z.#.&.$.).`.M.B.O.1.E.E.1.{ { 1.E.E.1.{             ",
"        + 4 G ,.H.H.,.{ { 1.Q.7.a , ' h.u.i.c./.^.$.) ( } V.B.U.l.j.j.j.j.n./.x.Y Y ^.).k. .} 1.E.E.1.{ { 1.E.P.<.{             ",
"            | } ,.,.} { { 1.Q.7.i * K s.h.n./.^.&.U T _ 3.S.U.j.s.y.y.y.q.p.c.x.Y I Y _ 0 h G 1.E.E.1.{ { 1.E.P.<.{             ",
"            } } { { { } ;.5.J.2.V , g K ' b./.x.Y r r U O.l.j.d.w.N n l l M W Q T e e y u d / 1.E.E.1.{ { 1.E.E.1.{             ",
"                { { { ,.H.J.5.;./ S , * , b v.x.Y r r f K y.y.q.P n < * * - 2 2 $ $ % u =.2.;.<.E.E.1.{ { 1.E.!.                ",
"                } { { 1.Q.E.<.{ } / s 5 @ 2 Q #.) U I f A K l l n g & + @ # # # + # > S 0.Q.1.<.E.E.1.{ { ,.H.E.                ",
"                        !.E.<.{ { ;.2.*.4 # c @.#.%.Y t f f 3 * * & # @ # - 3 ; # > V -.L.E.<.<.E.E.1.{ { } ,.<.                ",
"                        {.J.,.{ { 1.Q.7.i # ; v ! #.T e e y $ # # # # & = 3 9 8 # ; D 2.Q.J.,.;.H.H.<.{ { } { {                 ",
"                            o.{ { 1.Q.7.i # 3 0 x w 5 $ $ $ 5 3 = = 3 3 - 3 9 8 # #         } } ;.,.                            ",
"                            } { { 1.Q.:.8 & 6 9 : = & # # & 8 9 3 3 9 9 6 6 8 3 # +         } } { {                             ",
"                                        3 : 8 8 : - 3 3 - : 8 8 3 3 8 9 9 8 6 - # +                                             ",
"                                        - 3 8 9 3 3 9 9 3 3 8 9 6 3 8 9 9 8 3 = & #                                             ",
"                                        - 3 8 8 3 3 9 9 3 3 8 9 9 8 6 6 9 8 3 - 3 ; # +                                         ",
"                                        - : 8 9 7 7 6 3 - 3 8 9 9 8 - : h h : : 8 8 # +                                         ",
"                                        - 3 8 h l k : # = 3 9 9 0 8 # - k k - # 8 8 # +                                         ",
"                                        - 6 0 k J m x 2 - = 3 8 8 3 : < n n < : 3 ; # +                                         ",
"                                        - 7 k J L ' z.Q 2 # # # # : g n L L n g : #                                             ",
"                                        = j E t.t.i.x.%.w O + + + : M t.t.t.P n , +                                             ",
"                                            v.c.c.z.) U     + + + 2 W c.c.b.t.N                                                 ",
"                                            (.(.(.x.Y r     + + + w z.(.(.c.t.L                                                 "
};
