/* XPM */
static char *d9301618cec04d59dcb00496617e8240PqBmzzpscl6oIHUJ[] = {
/* columns rows colors chars-per-pixel */
"64 64 231 2 ",
"   c #1D1A2D",
".  c #1E1E32",
"X  c #221D2F",
"o  c #291E2F",
"O  c #33172B",
"+  c #351B2C",
"@  c #3D1D2A",
"#  c #231F31",
"$  c #281E30",
"%  c #391E33",
"&  c #1F2033",
"*  c #242135",
"=  c #25243A",
"-  c #28253C",
";  c #2B293E",
":  c #3B2134",
">  c #64151F",
",  c #641E1E",
"<  c #7D1518",
"1  c #69251E",
"2  c #7E221A",
"3  c #4A1F25",
"4  c #431D29",
"5  c #591B22",
"6  c #441F30",
"7  c #621D20",
"8  c #691927",
"9  c #741C2B",
"0  c #4B2126",
"q  c #432129",
"w  c #49262A",
"e  c #572428",
"r  c #48342A",
"t  c #4B3A2A",
"y  c #5A312B",
"u  c #422332",
"i  c #482A37",
"p  c #463834",
"a  c #683A24",
"s  c #692738",
"d  c #742C38",
"f  c #683434",
"g  c #574739",
"h  c #714A2F",
"j  c #252845",
"k  c #2C2B44",
"l  c #2E2D4A",
"z  c #312D44",
"x  c #322E4A",
"c  c #2F3147",
"v  c #323145",
"b  c #34344C",
"n  c #3A384E",
"m  c #2F3156",
"M  c #333354",
"N  c #3A3654",
"B  c #34365B",
"V  c #36395D",
"C  c #3A3B5D",
"Z  c #363A61",
"A  c #3A3D61",
"S  c #492C48",
"D  c #4D2E4D",
"F  c #4D324D",
"G  c #403E4A",
"H  c #583346",
"J  c #4B3655",
"K  c #553B55",
"L  c #6F394A",
"P  c #3E405F",
"I  c #3D4165",
"U  c #3D4469",
"Y  c #594949",
"T  c #4E4754",
"R  c #724E52",
"E  c #655857",
"W  c #414467",
"Q  c #464A64",
"!  c #4A4C65",
"~  c #424669",
"^  c #454A6D",
"/  c #4A4E6B",
"(  c #4D526E",
")  c #52546D",
"_  c #494F70",
"`  c #4D5373",
"'  c #4B5577",
"]  c #525671",
"[  c #535974",
"{  c #5B5D76",
"}  c #545C7B",
"|  c #585E7C",
" . c #664F67",
".. c #6A546A",
"X. c #735868",
"o. c #5E6276",
"O. c #5A617D",
"+. c #726666",
"@. c #7C746D",
"#. c #65687B",
"$. c #7C7A77",
"%. c #9C0F0E",
"&. c #891617",
"*. c #931814",
"=. c #A7160C",
"-. c #AC1A0C",
";. c #B61D09",
":. c #A71A11",
">. c #9E240F",
",. c #892818",
"<. c #9D2411",
"1. c #962519",
"2. c #8F3119",
"3. c #973418",
"4. c #A8260E",
"5. c #B7230A",
"6. c #BD2309",
"7. c #AC330F",
"8. c #B8340D",
"9. c #A22512",
"0. c #A72A15",
"q. c #A42B1B",
"w. c #A73914",
"e. c #B53614",
"r. c #851B23",
"t. c #88262A",
"y. c #93302B",
"u. c #A83724",
"i. c #C42406",
"p. c #C62907",
"a. c #C63B09",
"s. c #C13E21",
"d. c #9B5C1B",
"f. c #AE4313",
"g. c #B44619",
"h. c #A45D19",
"j. c #B75A13",
"k. c #9C6E1C",
"l. c #9E711E",
"z. c #A5691B",
"x. c #B86C16",
"c. c #A6741C",
"v. c #BC7317",
"b. c #97413D",
"n. c #A94426",
"m. c #BA4928",
"M. c #B05031",
"N. c #946627",
"B. c #A66727",
"V. c #AE732D",
"C. c #A77929",
"Z. c #B57624",
"A. c #C9440B",
"S. c #C7530C",
"D. c #D04E15",
"F. c #C65414",
"G. c #C4600E",
"H. c #C46812",
"J. c #DA6119",
"K. c #C47413",
"L. c #C87717",
"P. c #87504D",
"I. c #8C7151",
"U. c #B96C55",
"Y. c #8C6F74",
"T. c #857C74",
"R. c #BF891C",
"E. c #B3852E",
"W. c #B58936",
"Q. c #C78A17",
"!. c #D4851D",
"~. c #CB921A",
"^. c #D2951F",
"/. c #D29620",
"(. c #DB9727",
"). c #D59923",
"_. c #CC8E32",
"`. c #E99331",
"'. c #EA9A39",
"]. c #DFA32C",
"[. c #E2A42B",
"{. c #E8A934",
"}. c #F5A539",
"|. c #EFB135",
" X c #F6B33A",
".X c #F4B43C",
"XX c #F9B93E",
"oX c #9C8149",
"OX c #AB8E4E",
"+X c #8D8278",
"@X c #AC8E76",
"#X c #CB9B46",
"$X c #D79E46",
"%X c #CEA14D",
"&X c #D1A24E",
"*X c #DAAC56",
"=X c #F7B943",
"-X c #FCBD43",
";X c #E6B457",
":X c #CDAB69",
">X c #FFC146",
",X c #FFC349",
"<X c #5C6583",
"1X c #5A6785",
"2X c #5E6986",
"3X c #636B85",
"4X c #656D86",
"5X c #6C7387",
"6X c #6D758A",
"7X c #737A8B",
"8X c #7E8288",
"9X c #7D8593",
"0X c #86888A",
"qX c #91928D",
"wX c #818691",
"eX c #888D93",
"rX c #8E9294",
"tX c #939593",
"yX c #979996",
"uX c #94999A",
"iX c #9A9E9A",
"pX c #AD9488",
"aX c #9FA197",
"sX c #9CA19E",
"dX c #B1A78B",
"fX c #A2A49D",
"gX c #A8ABA1",
"hX c #AEB2A4",
"jX c #ADB5A8",
"kX c #B1B3A4",
"lX c #C2B48C",
/* pixels */
"# # # # # # # # # # # - M Y C.c.t = M V V M - # # # # # # . . . . + < =.6.i.i.a.K.)..X,X,X,X,X.X).K.a.<.3 . # = M W } 3X3X] v X ",
"# # # # # # # # # # # - M Y C.c.t = M V V M - # # # # $ + 4 q 0 q 5 &.-.6.p.a.S.K.^.{.XX-X,X,X.X).K.a.<.3 # = l C ^ ] } [ Q k X ",
"# # # # # # # # # # # - M Y C.c.t = M V V M - # # # . + > &.1.<.<.9.5.;.i.a.S.K.Q.~.^.[.XX,X,X.X).K.a.<.3 = l C ` [ / P n k * # ",
"# # # # # # # # # # # = l Y B.h.r = M V M l = # # o @ 7 *.;.i.p.p.p.s.m.m.M._.W.W.C.C.E.#X$X'.`.(.!.F.3.w k M W ] ` C l * X # # ",
"# # # # # # # # # # # * = i w.w.w - M M k = * # . @ 2 4.5.i.i.i.i.s.U.@X@X@XdX@XT.+.E Y E P.m.J.'.{.!.d.Y M V A W C l * # # # # ",
"# # # # # # # # # # # # . 0 9.9.0 - M M - X # $ + , 4.p.e.u.u.u.m.U.pXjXjXhXgXrX4X` V m B F t.m.'.-X[.C.Y m M M B M k * * # # # ",
"# # # # # # # # # # # # . 0 9.9.0 - M M - # # + > *.5.e.P.X.X.Y.@XpXgXjXjXgXwX4X` V k j M N F P.$X>XXX_.g = = k M V M l = # # # ",
"# # # # # # # # # # # # . 0 9.9.0 = l l = # . 4 &.:.q.b...1X5X9XuXsXiXiXtX0Xo.Q C l * = M V Z E #X,X,X#Xg     = l M V M - X # # ",
"# # # # # # # # # # # # . 0 9.9.0 * = = * . . 4 <.u.P...! [ wXuX9X7X7X5X{ ! n k - = # - M V B E %X,X,X#Xg . . * = k M M - X X # ",
"- - - - - = * # # # # # . 0 9.9.0 . # # # $ + , 4.u.X.' ~ [ 0XrX4X[ ] Q C l * X X # # - M V V E #XXX>X$Xh r q @ o = M M k - - - ",
"M M M M M l = # # # # # . 0 9.<.0 . # # # + > *.6.q.K ^ ' O.5X4X` C n k - = # # # # # - M V Z Y C.[.XX|.E.d.3.< @ = m V M M M M ",
"V V V V M l = # # # # # . 0 <.4.7 + $ . . q ,.7.9.t.F U } <XO.` C l * X X # # # # # # - M B m Y l.)..X=X[.!.J.g.a p H F N M M M ",
"V Z Z M k = * # # # # # . 0 <.5.*.> + . . r d.h.a u b ~ } O./ V l * # # # # # # # # # - M M j p l.)..X,X=X X}.`.Z.d.w.t.u = = = ",
"D D N l = # # # # # # # . 0 <.i.7.2.y r r h c.c.t = m ~ | } P l * X # # # # # # # # # - M N p h d.L.`.}.'.}. X|.[.!.J.g.a t t t ",
"r.8 : = # # # # # # # # . 0 <.a.F.x.z.k.k.c.Q.l.t = m ~ | [ n * # # # # # # # # # # # - M T N.z.w.7.A.D.D.J.!.].|. X}.`.Z.l.l.l.",
"7.2.a r q + o . . . . o + e w.F.!.).).).)./.~.k.t = l C ` / k X # # # # # # # # # # # = l Y N.j.7.:.9.q.u.n.V.W.%X*X*X%XW.C.x.v.",
"v.x.c.d.,.> + . . . . O > ,.j.!.{..X.X.X.X|./.k.r . = l C C ; X # # # # # # # # # # # * = u ,.7.6.0.d K  .X.+.@.T.T.+X@.E h 3.7.",
"v.K.Q.K.f.2.a g g g g h u.F.!.[.XX,X,X>X=X{./.z.a @ o = l l = # # # # # # # # # # # # o + 5 &.=.0.t.F U ' } [ ` ` ' } ' ^ K d t.",
"0.f.v.Q.v.Z._.#X#X#X#X_.'.'. XXX>X,X,X=X[./.~.v.w.2 @ * = = * # # # # # # # # # # # # + > &.-.0.d F C A U I n l l b C ^ ' { ....",
"t.y.j.L.Q.).|. X}.'.$X&X*X*X*X*X&X$X'.(.~.Q.Q.K.a.<.3 . # # # # # # # # # # # * = = * 4 &.=.0.y.T I B M M l * X X * l C ` O.2X2X",
"..P.n.S.L.~.).!.F.n.R +.T.+XT.@.+.R u.g.K.Q.Q.K.a.<.3 . # # # # # # # # # # X = l l = 4 <.0.d K ] / b = = = * X X # * l C _ O.2X",
"2XX.u.8.j.x.c.d.,.8 S I ' } <X} ^ K t.n.V.C.v.x.A.3.w . # # # # # # # # # * = k B N : 5 ,.y.K ^ ` Q k X X # # # # # X * l P } 3X",
"2X..y.=.4.2.y r @ : M Z I ^ } <X} #.Y.+XT.R y.7.G.d.r . # # # # # # # # X = l M V F 8 9 s K ] ` N ; * # # # # # # # # # * n ] 3X",
"2X..t.%.%.< @ . . = l M M C ` | <X7XsXgX9X+.P.n.L.c.a @ o # # # # # # * = k M V B S &.r.K _ <X] v X X # # * = = * # # # X v ) 3X",
"2X..t.%.%.< @ . . * = - = l C / | 7XsXgXsXyXpX@X_.K.w.2 @ . . # # * X = l M V M j 6 &.t. .<X2X) z X X # X = x l = # # # X v ] 3X",
"}  .t.%.&.> + # # # # X X * l V ` 4XeXfXgXjXjXdXOXZ.F.7.1 @ o # * * = k M V M x : 5 &.t. .<X2X] n * * * = k M M - # # # X v ] 3X",
"U K r.&.5 + $ # # # # # # * * l C ` 3XwXfXkXkXaXT.I.Z.G.7.2 @ . . = l M V M k : 7 &.%.r.K _ O.} C l * * l M V M - # # # X v ] 3X",
"D s &.< @ & # # # # # # # # X * l C / 5XyXgXfXrX9X$.oXZ.F.7.1 4 0 u x M M x : 5 &.%.&.s F ~ } O._ C l k M V M l = # # # X z / } ",
"2 &.*.< @ . # # # # # # # # X * * k C { tXfXwX9XuXtX$.I.Z.G.7.<.<.2 u = = : 7 &.%.&.s F N W } <XO.` C M V M k = * # # # X ; C ~ ",
"=.%.&.> + # # # # # # # # # # X X * l ) qXiX4X3XrXuX9X$.oXZ.F.a.p.4.1 q q 7 *.=.=.r.D V M C } <XO.' W V M l = X # # # * = k M V ",
"6.<.5 + o # # # # # # # # # # # # # * T qXtX{ / 3X9XuXtX$.I.Z.G.a.6.4.<.<.9.5.;.=.r.D m k n [ O./ I A M k = * $ # # $ - l M B V ",
"p.<.w = * # # # # # # # # # # # # X   T qXtX) V Q #.0XeX5X#.I.Z.e.6.i.p.p.p.p.5.*.s S l * k / ] I B M l = X $ $ # # # - M V M M ",
"p.q.H l = # # # # # # # # # # # # X   T qXtX] M z n ! { <X3X@.P.y.-.6.p.p.p.p.0.d S k = # ; C W A M k = * # # # # # # - M M k - ",
"A.u.H M - X # # # # # # # # # X X * ; ! qXtX) k * * k C } 3X2X..d &.-.6.i.i.i.1.H l = # X = l M V M - X # # # # # # # = x l = X ",
"K.B.Y M - X # # # # # # # # X X X ; Q #.iXqXT * # # * n [ 3X3X{ K s &.-.6.6.;.&.u = * # # * = k M M - X # # # # # # # * - = * # ",
"Q.C.Y M k = $ # # * = - - ; z v v T #.wXuX8XG X X # X ; Q [ } [ ^ K s *.5.5.*.> + # # # # # X - M M - # # # # # # # # # # o + 4 ",
"Q.C.Y B M l = X X = l M M C / ] ] #.rXuXwXo.v X # # # * ; n C ^ } ] K s 0.4.7 + o # # # # # X - M M - # # # # # # # # # . + > < ",
"Q.C.h F C M - # = k b M M C / ] ] #.0XwX3XQ k X # # # # X * l C ` ' U H q.<.0 . # # # # # * = k M M = X # # # # # # # $ + 5 &.=.",
"Q.x.3.9 J M - = l b k - - ; z v v N ! ) Q C - # # # # # # # * l C U Z H q.9.0 . # # # # X = l M B M = X X # # # # # & + > &.-.6.",
").L.e.r.D B k k b l = X X # X X X * l M B M - # # # # # # # X = M Z Z H 1.<.0 . # # # # * l C ~ ~ P n z ; - - = * $ + 5 ,.7.8.A.",
".X`.A.1.H V M x k = * # # # # # # # * k M M - # # # # # # # X = M V Z H r.&.4 # # X X * l C ` | | } [ / C M M l = + > ,.j.H.K.K.",
",X}.J.w.f F C M k = * # # # # # # # X = l l = # # # # # # * = k M V M S r.< @ * = ; k n P ^ } } [ ] [ / C N D S w e ,.f.v.~./.).",
",X.X!.j.1.9 D B M l = X # # # # # # # * = = * # # # # # X = l M V M k 6 < < @ = l C / [ } } ^ I b c c l j : 8 &.*.w.j.v.Q./.{..X",
",X=X].L.f.2.h T N l k = * # # # # # # # # # # # # # # * = k M Z V M = q ,.,.5 % x C ` } } ] K S w 3 3 3 0 , 2.8.A.J.!.).).[.XX,X",
"-X-X=X[.L.x.C.N.p j l x = # # # # # # # # # # # # # X = l M V V V M = r d.j.,.8 % l Z U U K s &.<.9.9.>.<.w.j.L.`.}. X X XXX-X>X",
"-X,X,X=X].).).E.h p b l = # # # # # # # # # # # # * = k M V M M M x u a c.K.f.2.y p Y Y Y f 1.=.0.q.q.q.q.n.V.W.&X*X*X*X*X*X*X*X",
"-X-X>X-X.X.X.X{.E.h p = * # # # # # # # # # # # # = l M V M k - = u 2 w.v.Q.v.x.z.k.C.C.C.z.8.9.d H H H H Y +.@.T.T.T.T.T.T.T.T.",
";X;X*X*X=X-XXX{.^.z.a + $ # # # # # # # # # # # # = l M M l = o + 1 7.S.!.).).).)./.~.Q.L.H.g.y.T U U I Z I ` } } } <X3X6X7X6X6X",
"lXdX+X@X;XXX[.^.~.x.2.> + & # # # # # # # # # # # * = - - = . @ < 7.j.!.{..X.X.X.X{./.K.S.g.P...{ } } ' I A I ~ U ^ } 6XrXiXiXuX",
"jXsX9X0X:X*XW.E.R.H.8.&.5 + $ # # # # # # # # $ + 4 0 w r t g h g.J.!.[.XX,X,X>X=X{./.v.m.b.X.2X2X<XO.` C M M M M C Q #.0XiXfXkX",
"jXgXsXfXdXdXT.I.E.K.a.-.&.> + . . . . . . . . + > &.*.w.h.C._.'.'.}. XXX>X,X,X=X[.^.~.Z.I.X.#.2X2X| / C l = = = = - k n ! #.iXkX",
"rXyXfXkXhXsX9X$.oXV.e.;.-.*.7 q 0 w r t t r w 7 *.=.:.w.B.E.#X&X&X&X&X&X#X#X#X_.L.K.Q.E.+.} } O.<XO./ C - X X # # X X * k ! 7XtX",
") #.yXkXhXgXsXrX$.P.y.-.;.5.9.<.<.3.d.l.c.z.w.4.6.9., w Y Y E E E E E E E E g h w.S.L.C.E U U / O.<XO.! k X X # # # # # * v ! ] ",
"M / 8XsXfXhXkXsX7X..L 1.4.6.i.p.a.S.H.K.c.h.3.9.q.t.i b Q ] ] ( ~ A Z V V m j : 2 7.G.B.Y B M C ` O.3X] v X # # # # # # X = l M ",
"B W #.wXsXhXkXiX7XO...R 1.-.;.a.G.H.S.w.a r 0 w i K ! o.8XtXtXwX3X' I V V V M x u 1 w.w.H M k k C _ <X[ v X X # # # # # # * = = ",
"B ~ #.wXfXgXfXrX6X2X2X..d *.8.F.!.L.f.2 u = k n ! o.5X9XuXsXyX0X#./ C M M M M l = 3 >.q.H l = * l C / Q v = * # # # # # # # # # ",
"B / 8XfXgXfXwX5X3X2X2X{ K f h.!.{._.h 6 z B ~ o.0XyXiXuX9X5Xo.! n k ; - - - - = & 0 <.9.w = * * = ; k v M l = # # # # # # # # # ",
"I { tXhXfXrX5X<X2X<X| ' ^ E E.[.|._.g j V ` 4XwXuXiXyX0Xo.Q B l * X X # X * = - - w q.<.0 . # # # X X = M M - # # # # # # $ # # ",
"} 5XiXfXwX5X3X2X3XO./ ~ ' @.#X|.[.E.Y V _ 4XrXuXwX5Xo.! n k - = # # # # X = l M M H q.<.0 . # $ # # X - M M - # # # # # $ # # # ",
"2X6XrXrX6X<X} } [ / A I } +X*X X!.B.Y _ } 5X0X8Xo./ A M k * # # # X # * = k M V B H q.4.1 @ o # # # # = l l = # # # # # # * = - ",
"3X4X6X6X4X| / C n v M U } +X*X}.J.n.X.<X2Xo.T n v v M B M l = X # X X = l M V B j w <.6.4.2 @ . . # # * = = * # # # # X X = l M ",
") ( ( ( ) / C l * * l A } T.&X`.g.y...2XO.! ;   X = l M M l = * = - - k M V M x u 1 w.A.A.w.a r w q o # # # # # # * = ; z n B V ",
"v v z z v k - = # # * n ' @.W.Z.a i ) O._ C -   X * = - - = * = l M M M V M k u ,.w.x.K.K.v.c.d.w.,.q # # # # # # = l C / / I V ",
"X X X X X X X # # X X l ` @.E.k.r l ` } W M = # # # # # # X # - M V V V V M - 3 9.A.K.Q.Q.Q.~.L.A.9.0 . # # # # # - M ~ | } W V "
};
